<svg width="3331" height="928" viewBox="0 0 3331 928" fill="none" xmlns="http://www.w3.org/2000/svg">
<path d="M395.6 198.56H216.09V378.06H68.3V50.71H395.6V198.56Z" fill="#FAFAFA"/>
<path d="M751.04 859.91L604.71 668.65H595L519.1 748.8V859.91H367.31V349.89H519.1V566.04H529.42L729.18 349.89H899.8L690.32 576.97L907.69 859.92H751.04V859.91Z" fill="#FAFAFA"/>
<path fill-rule="evenodd" clip-rule="evenodd" d="M1093.51 786.44H1323.02L1348.52 859.91H1506.39L1315.13 349.89H1101.4L910.75 859.91H1068.01L1093.51 786.44ZM1221.62 493.17L1283.55 672.89H1132.97L1194.9 493.17H1221.62Z" fill="#FAFAFA"/>
<path d="M1533.73 349.88H1686.12V859.9H1533.73V349.88Z" fill="#FAFAFA"/>
<path d="M1996.38 488.93L1722.55 736.65H1722.54V859.91H2190.07V732.4H1916.24V720.87L2193.72 473.14V349.89H1729.23V477.39H1996.38V488.93Z" fill="#FAFAFA"/>
<path d="M2230.17 349.88H2679.47V472.53H2382.56V553.28H2668.55V655.89H2382.56V736.64H2679.47V859.9H2230.17V349.88Z" fill="#FAFAFA"/>
<path d="M2901.12 349.88H2725.65V859.9H2874.41V561.77H2887.76L3083.89 859.9H3255.72V349.88H3106.95V648H3092.99L2901.12 349.88Z" fill="#FAFAFA"/>
</svg>
